# Blender 4.4.0
# www.blender.org
mtllib breadboard.mtl
o LP_breadboard_0.001
v -2.045829 1.440072 0.952982
v -2.045829 1.666710 0.952982
v -2.045829 1.666709 -1.182881
v -2.045829 1.440071 -1.182881
v -2.045829 1.440071 -1.182881
v -2.045829 1.666709 -1.182881
v 1.934133 1.666709 -1.182881
v 1.934133 1.440071 -1.182881
v 1.934133 1.440071 -1.182881
v 1.934133 1.666709 -1.182881
v 1.934133 1.666710 0.952982
v 1.934133 1.440072 0.952982
v 1.934133 1.440072 0.952982
v 1.934133 1.666710 0.952982
v -2.045829 1.666710 0.952982
v -2.045829 1.440072 0.952982
v -2.045829 1.440071 -1.182881
v 1.934133 1.440071 -1.182881
v 1.934133 1.440072 0.952982
v -2.045829 1.440072 0.952982
v 1.934133 1.666709 -1.182881
v -2.045829 1.666709 -1.182881
v -2.045829 1.666710 0.952982
v 1.934133 1.666710 0.952982
v 1.934133 1.666709 -1.182881
v 1.934133 1.666710 0.952982
v 1.934133 1.666709 -1.182881
v 1.934133 1.666710 0.952982
v -2.045829 1.440072 0.952982
v -2.045829 1.440071 -1.182881
v -2.045829 1.440071 -1.182881
v -2.045829 1.440072 0.952982
v -2.045829 1.440072 0.952982
v -2.045829 1.440071 -1.182881
v -2.045829 1.440071 -1.182881
v -2.045829 1.440072 0.952982
v -2.045829 1.440072 0.952982
v -2.045829 1.440071 -1.182881
v -2.045829 1.440071 -1.182881
v -2.045829 1.440072 0.952982
vn -1.0000 -0.0000 -0.0000
vn -0.0000 -0.0000 -1.0000
vn 1.0000 -0.0000 -0.0000
vn -0.0000 -0.0000 1.0000
vn -0.0000 -1.0000 -0.0000
vn -0.0000 1.0000 -0.0000
vn -0.0000 -0.0000 -0.0000
vt 0.636866 0.078909
vt 0.636866 0.020321
vt 0.303084 0.020321
vt 0.303084 0.078909
vt 0.991869 0.169115
vt 0.991869 0.110527
vt 0.004508 0.110527
vt 0.004508 0.169115
vt 0.990348 0.078909
vt 0.990348 0.020321
vt 0.656566 0.020321
vt 0.656566 0.078909
vt 0.991869 0.257841
vt 0.991869 0.199252
vt 0.004508 0.199252
vt 0.004508 0.257841
vt 0.004508 0.622206
vt 0.991869 0.622206
vt 0.991869 0.288424
vt 0.004508 0.288424
vt 0.991869 0.651335
vt 0.004508 0.651335
vt 0.004508 0.985117
vt 0.991869 0.985117
s 0
usemtl breadboard.001
f 1/1/1 2/2/1 3/3/1
f 1/1/1 3/3/1 4/4/1
f 5/5/2 6/6/2 7/7/2
f 5/5/2 7/7/2 8/8/2
f 9/9/3 10/10/3 11/11/3
f 9/9/3 11/11/3 12/12/3
f 13/13/4 14/14/4 15/15/4
f 13/13/4 15/15/4 16/16/4
f 17/17/5 18/18/5 19/19/5
f 17/17/5 19/19/5 20/20/5
f 21/21/6 22/22/6 23/23/6
f 21/21/6 23/23/6 24/24/6
f 11/11/7 10/10/7 25/10/7 26/11/7
f 21/21/7 24/24/7 28/24/7 27/21/7
f 1/1/7 4/4/7 30/4/7 29/1/7
f 17/17/7 20/20/7 32/20/7 31/17/7
f 29/1/7 30/4/7 34/4/7 33/1/7
f 31/17/7 32/20/7 36/20/7 35/17/7
f 33/1/7 34/4/7 38/4/7 37/1/7
f 35/17/7 36/20/7 40/20/7 39/17/7
