# Blender v2.81 (sub 16) OBJ File: 'simple desk.blend'
# www.blender.org
mtllib simple desk.mtl
o Plane
v 16.588884 0.000000 -16.588884
v -16.588884 0.000000 -16.588884
v 16.588884 0.000000 16.588884
v -16.588884 0.000000 16.588884
vt 0.000000 0.000000
vt 0.000000 1.000000
vt 1.000000 1.000000
vt 1.000000 0.000000
vn 0.0000 -1.0000 0.0000
usemtl Material.003
s off
f 1/1/1 3/2/1 4/3/1 2/4/1
o Cube.001_Cube.002
v -1.831920 1.524580 1.486423
v -2.616549 1.524580 0.701794
v -2.074384 1.524580 1.448021
v -2.293113 1.524580 1.336572
v -2.466698 1.524580 1.162988
v -2.578146 1.524580 0.944258
v -2.616549 1.713824 0.701794
v -1.831920 1.713824 1.486423
v -2.578146 1.713824 0.944258
v -2.466698 1.713824 1.162988
v -2.293113 1.713824 1.336573
v -2.074384 1.713824 1.448021
v -2.616549 1.524580 -0.701794
v -1.831920 1.524580 -1.486423
v -2.578146 1.524580 -0.944258
v -2.466698 1.524580 -1.162988
v -2.293113 1.524580 -1.336573
v -2.074384 1.524580 -1.448021
v -1.831920 1.713824 -1.486423
v -2.616549 1.713824 -0.701794
v -2.074384 1.713824 -1.448021
v -2.293113 1.713824 -1.336572
v -2.466698 1.713824 -1.162988
v -2.578146 1.713824 -0.944258
v 2.616549 1.524580 0.701794
v 1.831920 1.524580 1.486423
v 2.578146 1.524580 0.944258
v 2.466698 1.524580 1.162988
v 2.293113 1.524580 1.336573
v 2.074384 1.524580 1.448021
v 1.831920 1.713824 1.486423
v 2.616549 1.713824 0.701794
v 2.074384 1.713824 1.448021
v 2.293113 1.713824 1.336572
v 2.466698 1.713824 1.162988
v 2.578146 1.713824 0.944258
v 1.831920 1.524580 -1.486423
v 2.616549 1.524580 -0.701794
v 2.074384 1.524580 -1.448021
v 2.293113 1.524580 -1.336572
v 2.466698 1.524580 -1.162988
v 2.578146 1.524580 -0.944258
v 2.616549 1.713824 -0.701794
v 1.831920 1.713824 -1.486423
v 2.578146 1.713824 -0.944258
v 2.466698 1.713824 -1.162988
v 2.293113 1.713824 -1.336573
v 2.074384 1.713824 -1.448021
v -2.074384 1.524580 1.448021
v -1.831920 1.524580 1.486423
v -1.831920 1.713824 1.486423
v -2.074384 1.713824 1.448021
v -2.293113 1.524580 1.336572
v -2.293113 1.713824 1.336573
v -2.466698 1.524580 1.162988
v -2.466698 1.713824 1.162988
v -2.578146 1.524580 0.944258
v -2.578146 1.713824 0.944258
v -2.616549 1.524580 0.701794
v -2.616549 1.713824 0.701794
v -2.074384 1.713824 -1.448021
v -1.831920 1.713824 -1.486423
v -1.831920 1.524580 -1.486423
v -2.074384 1.524580 -1.448021
v -2.293113 1.713824 -1.336572
v -2.293113 1.524580 -1.336573
v -2.466698 1.713824 -1.162988
v -2.466698 1.524580 -1.162988
v -2.578146 1.713824 -0.944258
v -2.578146 1.524580 -0.944258
v -2.616549 1.713824 -0.701794
v -2.616549 1.524580 -0.701794
v 2.578146 1.713824 -0.944258
v 2.616549 1.713824 -0.701794
v 2.616549 1.524580 -0.701794
v 2.578146 1.524580 -0.944258
v 2.466698 1.713824 -1.162988
v 2.466698 1.524580 -1.162988
v 2.293113 1.713824 -1.336573
v 2.293113 1.524580 -1.336572
v 2.074384 1.713824 -1.448021
v 2.074384 1.524580 -1.448021
v 1.831920 1.713824 -1.486423
v 1.831920 1.524580 -1.486423
v 2.074384 1.713824 1.448021
v 1.831920 1.713824 1.486423
v 1.831920 1.524580 1.486423
v 2.074384 1.524580 1.448021
v 2.293113 1.713824 1.336572
v 2.293113 1.524580 1.336573
v 2.466698 1.713824 1.162988
v 2.466698 1.524580 1.162988
v 2.578146 1.713824 0.944258
v 2.578146 1.524580 0.944258
v 2.616549 1.713824 0.701794
v 2.616549 1.524580 0.701794
vn 0.0000 -1.0000 0.0000
vn 0.9969 0.0000 -0.0784
vn 0.9969 0.0000 0.0784
vn 0.0000 1.0000 0.0000
vn 0.0784 0.0000 0.9969
vn -0.0784 0.0000 0.9969
vn -0.0784 0.0000 -0.9969
vn 0.0784 0.0000 -0.9969
vn -0.3090 0.0000 0.9510
vn -0.5878 0.0000 0.8090
vn -0.8090 0.0000 0.5878
vn -0.9510 0.0000 0.3090
vn -0.9969 0.0000 0.0784
vn -0.3090 0.0000 -0.9510
vn -0.5878 0.0000 -0.8090
vn -0.8090 0.0000 -0.5878
vn -0.9510 0.0000 -0.3090
vn -0.9969 0.0000 -0.0784
vn 0.9510 0.0000 -0.3090
vn 0.8090 0.0000 -0.5878
vn 0.5878 0.0000 -0.8090
vn 0.3090 0.0000 -0.9510
vn 0.3090 0.0000 0.9510
vn 0.5878 0.0000 0.8090
vn 0.8090 0.0000 0.5878
vn 0.9510 0.0000 0.3090
usemtl Material.002
s 1
f 54//2 53//2 57//2 59//2 61//2 63//2 76//2 74//2 72//2 70//2 68//2 18//2 88//2 86//2 84//2 82//2 80//2 42//2 100//2 98//2 96//2 94//2 92//2 30//2
f 47//3 36//4 29//4 79//3
f 90//5 89//5 93//5 95//5 97//5 99//5 78//5 77//5 81//5 83//5 85//5 87//5 66//5 65//5 69//5 71//5 73//5 75//5 64//5 62//5 60//5 58//5 56//5 12//5
f 35//6 55//7 5//7 91//6
f 23//8 48//9 41//9 67//8
f 5//7 55//7 16//10 7//10
f 7//10 16//10 15//11 8//11
f 8//11 15//11 14//12 9//12
f 9//12 14//12 13//13 10//13
f 10//13 13//13 11//14 6//14
f 23//8 67//8 22//15 25//15
f 25//15 22//15 21//16 26//16
f 26//16 21//16 20//17 27//17
f 27//17 20//17 19//18 28//18
f 28//18 19//18 17//19 24//19
f 47//3 79//3 46//20 49//20
f 49//20 46//20 45//21 50//21
f 50//21 45//21 44//22 51//22
f 51//22 44//22 43//23 52//23
f 52//23 43//23 41//9 48//9
f 35//6 91//6 34//24 37//24
f 37//24 34//24 33//25 38//25
f 38//25 33//25 32//26 39//26
f 39//26 32//26 31//27 40//27
f 40//27 31//27 29//4 36//4
f 11//14 24//19 17//19 6//14
o Cylinder
v -1.908573 1.519276 -0.588467
v -2.322803 0.052701 -0.921564
v -1.993816 1.519276 -0.611308
v -2.378438 0.052701 -0.936472
v -2.056218 1.519276 -0.673710
v -2.419167 0.052701 -0.977200
v -2.079058 1.519276 -0.758952
v -2.434074 0.052701 -1.032836
v -2.056218 1.519276 -0.844195
v -2.419167 0.052701 -1.088471
v -1.993816 1.519276 -0.906597
v -2.378438 0.052701 -1.129200
v -1.908573 1.519276 -0.929437
v -2.322803 0.052701 -1.144107
v -1.823331 1.519276 -0.906597
v -2.267167 0.052701 -1.129200
v -1.760929 1.519276 -0.844195
v -2.226439 0.052701 -1.088471
v -1.738088 1.519276 -0.758952
v -2.211531 0.052701 -1.032836
v -1.760929 1.519276 -0.673710
v -2.226439 0.052701 -0.977200
v -1.823331 1.519276 -0.611308
v -2.267167 0.052701 -0.936472
v 1.908573 1.519276 -0.588467
v 2.322803 0.052701 -0.921564
v 1.993816 1.519276 -0.611308
v 2.378438 0.052701 -0.936472
v 2.056218 1.519276 -0.673710
v 2.419167 0.052701 -0.977200
v 2.079058 1.519276 -0.758952
v 2.434074 0.052701 -1.032836
v 2.056218 1.519276 -0.844195
v 2.419167 0.052701 -1.088471
v 1.993816 1.519276 -0.906597
v 2.378438 0.052701 -1.129200
v 1.908573 1.519276 -0.929437
v 2.322803 0.052701 -1.144107
v 1.823331 1.519276 -0.906597
v 2.267167 0.052701 -1.129200
v 1.760929 1.519276 -0.844195
v 2.226439 0.052701 -1.088471
v 1.738088 1.519276 -0.758952
v 2.211531 0.052701 -1.032836
v 1.760929 1.519276 -0.673710
v 2.226439 0.052701 -0.977200
v 1.823331 1.519276 -0.611308
v 2.267167 0.052701 -0.936472
v -1.908573 1.519276 0.588467
v -2.322803 0.052701 0.921564
v -1.993816 1.519276 0.611308
v -2.378438 0.052701 0.936472
v -2.056218 1.519276 0.673710
v -2.419167 0.052701 0.977200
v -2.079058 1.519276 0.758952
v -2.434074 0.052701 1.032836
v -2.056218 1.519276 0.844195
v -2.419167 0.052701 1.088471
v -1.993816 1.519276 0.906597
v -2.378438 0.052701 1.129200
v -1.908573 1.519276 0.929437
v -2.322803 0.052701 1.144107
v -1.823331 1.519276 0.906597
v -2.267167 0.052701 1.129200
v -1.760929 1.519276 0.844195
v -2.226439 0.052701 1.088471
v -1.738088 1.519276 0.758952
v -2.211531 0.052701 1.032836
v -1.760929 1.519276 0.673710
v -2.226439 0.052701 0.977200
v -1.823331 1.519276 0.611308
v -2.267167 0.052701 0.936472
v 1.908573 1.519276 0.588467
v 2.322803 0.052701 0.921564
v 1.993816 1.519276 0.611308
v 2.378438 0.052701 0.936472
v 2.056218 1.519276 0.673710
v 2.419167 0.052701 0.977200
v 2.079058 1.519276 0.758952
v 2.434074 0.052701 1.032836
v 2.056218 1.519276 0.844195
v 2.419167 0.052701 1.088471
v 1.993816 1.519276 0.906597
v 2.378438 0.052701 1.129200
v 1.908573 1.519276 0.929437
v 2.322803 0.052701 1.144107
v 1.823331 1.519276 0.906597
v 2.267167 0.052701 1.129200
v 1.760929 1.519276 0.844195
v 2.226439 0.052701 1.088471
v 1.738088 1.519276 0.758952
v 2.211531 0.052701 1.032836
v 1.760929 1.519276 0.673710
v 2.226439 0.052701 0.977200
v 1.823331 1.519276 0.611308
v 2.267167 0.052701 0.936472
v -1.908573 1.519276 -0.588467
v -1.993816 1.519276 -0.611308
v -2.378438 0.052701 -0.936472
v -2.322803 0.052701 -0.921564
v -2.056218 1.519276 -0.673710
v -2.419167 0.052701 -0.977200
v -2.079058 1.519276 -0.758952
v -2.434074 0.052701 -1.032836
v -2.056218 1.519276 -0.844195
v -2.419167 0.052701 -1.088471
v -1.993816 1.519276 -0.906597
v -2.378438 0.052701 -1.129200
v -1.908573 1.519276 -0.929437
v -2.322803 0.052701 -1.144107
v -1.823331 1.519276 -0.906597
v -2.267167 0.052701 -1.129200
v -1.760929 1.519276 -0.844195
v -2.226439 0.052701 -1.088471
v -1.738088 1.519276 -0.758952
v -2.211531 0.052701 -1.032836
v -1.760929 1.519276 -0.673710
v -2.226439 0.052701 -0.977200
v -1.823331 1.519276 -0.611308
v -2.267167 0.052701 -0.936472
v 1.908573 1.519276 -0.588467
v 1.993816 1.519276 -0.611308
v 2.378438 0.052701 -0.936472
v 2.322803 0.052701 -0.921564
v 2.056218 1.519276 -0.673710
v 2.419167 0.052701 -0.977200
v 2.079058 1.519276 -0.758952
v 2.434074 0.052701 -1.032836
v 2.056218 1.519276 -0.844195
v 2.419167 0.052701 -1.088471
v 1.993816 1.519276 -0.906597
v 2.378438 0.052701 -1.129200
v 1.908573 1.519276 -0.929437
v 2.322803 0.052701 -1.144107
v 1.823331 1.519276 -0.906597
v 2.267167 0.052701 -1.129200
v 1.760929 1.519276 -0.844195
v 2.226439 0.052701 -1.088471
v 1.738088 1.519276 -0.758952
v 2.211531 0.052701 -1.032836
v 1.760929 1.519276 -0.673710
v 2.226439 0.052701 -0.977200
v 1.823331 1.519276 -0.611308
v 2.267167 0.052701 -0.936472
v -1.908573 1.519276 0.588467
v -1.993816 1.519276 0.611308
v -2.378438 0.052701 0.936472
v -2.322803 0.052701 0.921564
v -2.056218 1.519276 0.673710
v -2.419167 0.052701 0.977200
v -2.079058 1.519276 0.758952
v -2.434074 0.052701 1.032836
v -2.056218 1.519276 0.844195
v -2.419167 0.052701 1.088471
v -1.993816 1.519276 0.906597
v -2.378438 0.052701 1.129200
v -1.908573 1.519276 0.929437
v -2.322803 0.052701 1.144107
v -1.823331 1.519276 0.906597
v -2.267167 0.052701 1.129200
v -1.760929 1.519276 0.844195
v -2.226439 0.052701 1.088471
v -1.738088 1.519276 0.758952
v -2.211531 0.052701 1.032836
v -1.760929 1.519276 0.673710
v -2.226439 0.052701 0.977200
v -1.823331 1.519276 0.611308
v -2.267167 0.052701 0.936472
v 1.908573 1.519276 0.588467
v 1.993816 1.519276 0.611308
v 2.378438 0.052701 0.936472
v 2.322803 0.052701 0.921564
v 2.056218 1.519276 0.673710
v 2.419167 0.052701 0.977200
v 2.079058 1.519276 0.758952
v 2.434074 0.052701 1.032836
v 2.056218 1.519276 0.844195
v 2.419167 0.052701 1.088471
v 1.993816 1.519276 0.906597
v 2.378438 0.052701 1.129200
v 1.908573 1.519276 0.929437
v 2.322803 0.052701 1.144107
v 1.823331 1.519276 0.906597
v 2.267167 0.052701 1.129200
v 1.760929 1.519276 0.844195
v 2.226439 0.052701 1.088471
v 1.738088 1.519276 0.758952
v 2.211531 0.052701 1.032836
v 1.760929 1.519276 0.673710
v 2.226439 0.052701 0.977200
v 1.823331 1.519276 0.611308
v 2.267167 0.052701 0.936472
vn -0.0408 0.2322 -0.9718
vn 0.0456 0.2090 -0.9768
vn 0.5457 0.0424 -0.8368
vn 0.4523 0.0783 -0.8884
vn 0.8816 -0.1240 -0.4553
vn 0.8364 -0.0953 -0.5397
vn 0.9704 -0.2400 0.0272
vn 0.9727 -0.2298 -0.0305
vn 0.8286 -0.2853 0.4817
vn 0.8317 -0.2852 0.4763
vn 0.5019 -0.2570 0.8258
vn 0.4625 -0.2504 0.8505
vn 0.0428 -0.1565 0.9867
vn -0.0460 -0.1319 0.9902
vn -0.4527 0.0016 0.8917
vn -0.5450 0.0378 0.8375
vn -0.8273 0.1736 0.5343
vn -0.8697 0.2010 0.4507
vn -0.9528 0.3020 0.0298
vn -0.9499 0.3114 -0.0256
vn -0.8116 0.3538 -0.4648
vn -0.8086 0.3539 -0.4700
vn 0.0000 1.0000 0.0000
vn -0.4901 0.3274 -0.8078
vn -0.4525 0.3214 -0.8318
vn 0.0000 -1.0000 0.0000
vn 0.0408 0.2322 -0.9718
vn -0.4523 0.0783 -0.8884
vn -0.5457 0.0424 -0.8368
vn -0.0456 0.2090 -0.9768
vn -0.8364 -0.0953 -0.5397
vn -0.8816 -0.1240 -0.4553
vn -0.9727 -0.2298 -0.0305
vn -0.9704 -0.2400 0.0272
vn -0.8317 -0.2852 0.4763
vn -0.8286 -0.2853 0.4817
vn -0.4625 -0.2504 0.8505
vn -0.5019 -0.2570 0.8258
vn 0.0460 -0.1319 0.9902
vn -0.0428 -0.1565 0.9867
vn 0.5450 0.0378 0.8375
vn 0.4527 0.0016 0.8917
vn 0.8697 0.2010 0.4507
vn 0.8273 0.1736 0.5343
vn 0.9499 0.3114 -0.0256
vn 0.9528 0.3020 0.0298
vn 0.8086 0.3539 -0.4700
vn 0.8116 0.3538 -0.4648
vn 0.4901 0.3274 -0.8078
vn 0.4525 0.3214 -0.8318
vn -0.0408 0.2322 0.9718
vn 0.4523 0.0783 0.8884
vn 0.5457 0.0424 0.8368
vn 0.0456 0.2090 0.9768
vn 0.8364 -0.0953 0.5397
vn 0.8816 -0.1240 0.4553
vn 0.9727 -0.2298 0.0305
vn 0.9704 -0.2400 -0.0272
vn 0.8317 -0.2852 -0.4763
vn 0.8286 -0.2853 -0.4817
vn 0.4625 -0.2504 -0.8505
vn 0.5019 -0.2570 -0.8258
vn -0.0460 -0.1319 -0.9902
vn 0.0428 -0.1565 -0.9867
vn -0.5450 0.0378 -0.8375
vn -0.4527 0.0016 -0.8917
vn -0.8697 0.2010 -0.4507
vn -0.8273 0.1736 -0.5343
vn -0.9499 0.3114 0.0256
vn -0.9528 0.3020 -0.0298
vn -0.8086 0.3539 0.4700
vn -0.8116 0.3538 0.4648
vn -0.4901 0.3274 0.8078
vn -0.4525 0.3214 0.8318
vn 0.0408 0.2322 0.9718
vn -0.0456 0.2090 0.9768
vn -0.5457 0.0424 0.8368
vn -0.4523 0.0783 0.8884
vn -0.8816 -0.1240 0.4553
vn -0.8364 -0.0953 0.5397
vn -0.9704 -0.2400 -0.0272
vn -0.9727 -0.2298 0.0305
vn -0.8286 -0.2853 -0.4817
vn -0.8317 -0.2852 -0.4763
vn -0.5019 -0.2570 -0.8258
vn -0.4625 -0.2504 -0.8505
vn -0.0428 -0.1565 -0.9867
vn 0.0460 -0.1319 -0.9902
vn 0.4527 0.0016 -0.8917
vn 0.5450 0.0378 -0.8375
vn 0.8273 0.1736 -0.5343
vn 0.8697 0.2010 -0.4507
vn 0.9528 0.3020 -0.0298
vn 0.9499 0.3114 0.0256
vn 0.8116 0.3538 0.4648
vn 0.8086 0.3539 0.4700
vn 0.4901 0.3274 0.8078
vn 0.4525 0.3214 0.8318
usemtl Material.002
s 1
f 197//28 200//29 199//30 198//31
f 198//31 199//30 202//32 201//33
f 201//33 202//32 204//34 203//35
f 203//35 204//34 206//36 205//37
f 205//37 206//36 208//38 207//39
f 207//39 208//38 210//40 209//41
f 209//41 210//40 212//42 211//43
f 211//43 212//42 214//44 213//45
f 213//45 214//44 216//46 215//47
f 215//47 216//46 218//48 217//49
f 104//50 102//50 220//50 122//50 120//50 118//50 116//50 114//50 112//50 110//50 108//50 106//50
f 219//51 124//52 200//29 197//28
f 217//49 218//48 124//52 219//51
f 101//53 103//53 105//53 107//53 109//53 111//53 113//53 115//53 117//53 119//53 121//53 123//53
f 221//54 222//55 223//56 224//57
f 222//55 225//58 226//59 223//56
f 225//58 227//60 228//61 226//59
f 227//60 229//62 230//63 228//61
f 229//62 231//64 232//65 230//63
f 231//64 233//66 234//67 232//65
f 233//66 235//68 236//69 234//67
f 235//68 237//70 238//71 236//69
f 237//70 239//72 240//73 238//71
f 239//72 241//74 242//75 240//73
f 128//50 130//50 132//50 134//50 136//50 138//50 140//50 142//50 144//50 146//50 244//50 126//50
f 243//76 221//54 224//57 148//77
f 241//74 243//76 148//77 242//75
f 125//53 147//53 145//53 143//53 141//53 139//53 137//53 135//53 133//53 131//53 129//53 127//53
f 245//78 246//79 247//80 248//81
f 246//79 249//82 250//83 247//80
f 249//82 251//84 252//85 250//83
f 251//84 253//86 254//87 252//85
f 253//86 255//88 256//89 254//87
f 255//88 257//90 258//91 256//89
f 257//90 259//92 260//93 258//91
f 259//92 261//94 262//95 260//93
f 261//94 263//96 264//97 262//95
f 263//96 265//98 266//99 264//97
f 152//50 154//50 156//50 158//50 160//50 162//50 164//50 166//50 168//50 170//50 268//50 150//50
f 267//100 245//78 248//81 172//101
f 265//98 267//100 172//101 266//99
f 149//53 171//53 169//53 167//53 165//53 163//53 161//53 159//53 157//53 155//53 153//53 151//53
f 269//102 272//103 271//104 270//105
f 270//105 271//104 274//106 273//107
f 273//107 274//106 276//108 275//109
f 275//109 276//108 278//110 277//111
f 277//111 278//110 280//112 279//113
f 279//113 280//112 282//114 281//115
f 281//115 282//114 284//116 283//117
f 283//117 284//116 286//118 285//119
f 285//119 286//118 288//120 287//121
f 287//121 288//120 290//122 289//123
f 176//50 174//50 292//50 194//50 192//50 190//50 188//50 186//50 184//50 182//50 180//50 178//50
f 291//124 196//125 272//103 269//102
f 289//123 290//122 196//125 291//124
f 173//53 175//53 177//53 179//53 181//53 183//53 185//53 187//53 189//53 191//53 193//53 195//53
